<svg width="181" height="84" viewBox="0 0 181 84" fill="none" xmlns="http://www.w3.org/2000/svg">
<g clip-path="url(#clip0)">
<path d="M89.91 25.77V47.3" stroke="#030304" stroke-width="2" stroke-miterlimit="10" stroke-linecap="round"/>
<path d="M73.45 1.11L82.38 51.76" stroke="#030304" stroke-width="2" stroke-miterlimit="10" stroke-linecap="round"/>
<path d="M70.81 42.02L74.36 51.76" stroke="#030304" stroke-width="2" stroke-miterlimit="10" stroke-linecap="round"/>
<path d="M42.54 12.47L67.45 55.63" stroke="#030304" stroke-width="2" stroke-miterlimit="10" stroke-linecap="round"/>
<path d="M45.82 42.02L60.39 59.37" stroke="#030304" stroke-width="2" stroke-miterlimit="10" stroke-linecap="round"/>
<path d="M17.37 33.73L54.99 65.29" stroke="#030304" stroke-width="2" stroke-miterlimit="10" stroke-linecap="round"/>
<path d="M36.48 63.78L47.24 69.99" stroke="#030304" stroke-width="2" stroke-miterlimit="10" stroke-linecap="round"/>
<path d="M1 62.3L41.86 75.01" stroke="#030304" stroke-width="2" stroke-miterlimit="10" stroke-linecap="round"/>
<path d="M179.23 61.72L145.94 73.84" stroke="#030304" stroke-width="2" stroke-miterlimit="10" stroke-linecap="round"/>
<path d="M148.28 60.57L137.37 66.87" stroke="#030304" stroke-width="2" stroke-miterlimit="10" stroke-linecap="round"/>
<path d="M162.67 33.25L129.21 61.33" stroke="#030304" stroke-width="2" stroke-miterlimit="10" stroke-linecap="round"/>
<path d="M134.72 40.94L122.93 54.98" stroke="#030304" stroke-width="2" stroke-miterlimit="10" stroke-linecap="round"/>
<path d="M137.37 12.16L112.65 54.98" stroke="#030304" stroke-width="2" stroke-miterlimit="10" stroke-linecap="round"/>
<path d="M110.97 36.53L105.87 50.56" stroke="#030304" stroke-width="2" stroke-miterlimit="10" stroke-linecap="round"/>
<path d="M106.38 1L97.65 50.54" stroke="#030304" stroke-width="2" stroke-miterlimit="10" stroke-linecap="round"/>
<path d="M148.28 81.37H166.9" stroke="#030304" stroke-width="2" stroke-miterlimit="10" stroke-linecap="round"/>
<path d="M20.67 81.37H37.69" stroke="#030304" stroke-width="2" stroke-miterlimit="10" stroke-linecap="round"/>
<path d="M132.18 82.47C132.353 82.4679 132.525 82.43 132.683 82.3587C132.841 82.2874 132.983 82.1842 133.099 82.0556C133.215 81.927 133.304 81.7757 133.359 81.6113C133.414 81.4468 133.435 81.2728 133.42 81.1C132.23 68.16 114.28 57.88 92.3 57.88C70.32 57.88 52.37 68.16 51.18 81.1C51.1648 81.2728 51.1855 81.4468 51.2408 81.6113C51.296 81.7757 51.3846 81.927 51.501 82.0556C51.6174 82.1842 51.7591 82.2874 51.9172 82.3587C52.0754 82.43 52.2465 82.4679 52.42 82.47H132.18Z" stroke="#030304" stroke-width="2" stroke-linecap="round" stroke-linejoin="round"/>
<path d="M114.171 74.8557C114.334 74.854 114.493 74.8027 114.629 74.7081C114.764 74.6136 114.87 74.4798 114.934 74.3233C114.997 74.1667 115.016 73.9942 114.987 73.8269C114.958 73.6596 114.882 73.5047 114.77 73.3814C110.371 68.3894 101.855 65 92.0653 65C82.1525 65 73.5373 68.4776 69.1913 73.5817C69.0903 73.7086 69.0262 73.863 69.0065 74.0267C68.9868 74.1904 69.0123 74.3566 69.0801 74.5056C69.1479 74.6547 69.2551 74.7804 69.3891 74.868C69.523 74.9556 69.6782 75.0014 69.8363 75L114.171 74.8557Z" fill="#030304"/>
</g>
<defs>
<clipPath id="clip0">
<rect width="180.23" height="83.46" fill="white"/>
</clipPath>
</defs>
</svg>
